<?xml version="1.0" encoding="utf-8"?>
<!-- Generator: Adobe Illustrator 26.0.1, SVG Export Plug-In . SVG Version: 6.00 Build 0)  -->
<svg version="1.1" xmlns="http://www.w3.org/2000/svg" xmlns:xlink="http://www.w3.org/1999/xlink" x="0px" y="0px"
	 viewBox="0 0 1080 1920" style="enable-background:new 0 0 1080 1920;" xml:space="preserve">
<style type="text/css">
	.st0{fill:#80D6CC;stroke:#000000;stroke-width:12;stroke-miterlimit:10;}
	.st1{fill:#FFFFFF;stroke:#000000;stroke-width:12;stroke-miterlimit:10;}
	.st2{fill:#E8434F;stroke:#000000;stroke-width:12;stroke-miterlimit:10;}
	.st3{fill:#4A586D;stroke:#000000;stroke-width:12;stroke-miterlimit:10;}
</style>
<g id="taivas">
	<rect x="128" y="1039.79" class="st0" width="853" height="607.8"/>
</g>
<g id="torni">
	<ellipse class="st1" cx="564" cy="798" rx="228" ry="56"/>
	<polygon class="st2" points="441.72,795 369,1642 760,1642 685.74,795 685.74,507 440.77,507 	"/>
</g>
<g id="valkoiset_laatikko">
	<rect x="442" y="511" class="st1" width="192" height="97"/>
	<rect x="336" y="644" class="st1" width="104" height="154"/>
	<rect x="688" y="644" class="st1" width="104" height="154"/>
	<polygon class="st1" points="440,798 688,798 698,951 429,951 	"/>
	<polygon class="st1" points="413,1133 712,1133 728,1314 398,1314 	"/>
</g>
<g id="katto">
	<g>
		<polygon class="st2" points="560.79,379 381.58,511 740,511 		"/>
		<circle class="st2" cx="560.5" cy="350.5" r="36.5"/>
		<line class="st2" x1="560.5" y1="310.62" x2="560.5" y2="223.3"/>
	</g>
</g>
<g id="maa">
	<path class="st3" d="M131,1646c4.15-11.84,16.51-53.96,62-81c51.72-30.74,103.35-19.55,114-17c47.92-97.55,147.79-159.18,256-158
		c106.03,1.16,202.9,62.44,249.83,158c13.05-2.57,50.19-8.09,90.17,11c54.38,25.97,71.91,77.5,75,87
		C694.24,1646,414.76,1646,131,1646z"/>
</g>
<g id="firman_nimi">
	<g>
		<path d="M197.86,1790.34h-12.15l-33-57.95h-0.43v49.94h9.03v8.01h-28.59v-8.01h9.03v-57.03h-9.03v-8.02h22.03l32.14,57.54h0.43
			v-49.53h-9.03v-8.02h28.59v8.02h-9.03V1790.34z"/>
		<path d="M282.24,1762.08c0,8.43-0.43,23.22-19.02,27.64c-5.37,1.13-9.78,1.54-14.19,1.54c-4.51,0-8.81-0.41-14.19-1.54
			c-18.59-4.42-19.02-19.11-19.02-27.54c0-5.75,0-11.3,0-16.75c0-8.43,0.43-23.12,19.02-27.54c5.37-1.13,9.67-1.54,14.19-1.54
			c4.41,0,8.81,0.41,14.19,1.54c18.59,4.42,19.02,19.21,19.02,27.64V1762.08z M271.7,1745.54c-0.32-16.44-6.88-20.45-22.68-20.45
			c-16.88,0-22.68,5.14-22.68,20.34c0,5.45,0,11,0,16.75c0,16.03,7.74,20.34,22.68,20.34c16.87,0,22.68-5.24,22.68-20.45V1745.54z"
			/>
		<path d="M322.97,1762.49h-10.96v19.83h9.03v8.01h-28.59v-8.01h9.03v-57.03h-9.03v-8.02h38.16c14.83,0,24.29,2.67,24.29,22.61
			c0,18.39-8.06,22.09-20.85,22.61l14.62,19.83h8.92v8.01h-15.37L322.97,1762.49z M330.6,1754.07c8.49,0,13.76-1.95,13.76-14.18
			s-5.27-13.87-13.76-13.87h-18.59v28.05H330.6z"/>
		<path d="M414.22,1726.01h-15.26v56.31h9.03v8.01h-28.59v-8.01h9.03v-56.31h-15.26v8.22h-9.57v-16.96h60.19v16.96h-9.57V1726.01z"
			/>
		<path d="M496.22,1782.32h9.03v8.01h-28.59v-8.01h9.03v-25.07h-35.04v25.07h9.03v8.01h-28.59v-8.01h9.03v-57.03h-9.03v-8.02h28.59
			v8.02h-9.03v23.22h35.04v-23.22h-9.03v-8.02h28.59v8.02h-9.03V1782.32z"/>
		<path d="M538.68,1717.28h38.26c11.29,0,21.6,1.54,21.6,18.39v2.05c0,8.43-5.48,13.25-10.64,14.49
			c6.66,0.72,13.97,5.75,13.97,15.72v3.29c-0.54,17.47-12.79,19.11-23.32,19.11h-39.88v-8.01h9.03v-57.03h-9.03V1717.28z
			 M558.24,1747.9h18.7c5.48-0.1,11.07-1.03,11.07-10.17v-2.05c0-8.84-5.27-9.66-11.07-9.66h-18.7V1747.9z M578.55,1781.6
			c5.8,0,12.47-0.92,12.79-10.58v-3.08c0-10.48-7.42-11.51-13.22-11.51h-19.88v25.17H578.55z"/>
		<path d="M658.41,1726.01h-27.3v23.84h29.24v8.73h-29.24v23.02h28.27v-8.22h9.03v16.95h-56.86v-8.01h9.03v-57.03h-9.03v-8.02h55.89
			v16.96h-9.03V1726.01z"/>
		<path d="M673.35,1782.32h7.52l24.4-65.04h13.65l24.4,65.04h7.63v8.01h-26.76v-8.01h8.17l-5.38-14.69H697.1l-5.27,14.69H700v8.01
			h-26.66V1782.32z M700.33,1758.79h23.43l-11.5-32.16h-0.43L700.33,1758.79z"/>
		<path d="M798.67,1725.6c-3.12-0.31-6.66-0.51-10.64-0.51c-3.55,0-7.2,0.21-10.43,0.92c-11.72,2.57-11.93,12.54-11.93,18.39v18.7
			c0,5.86,0.21,15.82,11.93,18.39c3.22,0.72,6.88,1.03,10.43,1.03c9.03,0.1,15.69-1.23,20.21-1.95v8.53
			c-5.27,0.92-11.39,2.16-20.21,2.16c-4.3,0-8.81-0.41-12.9-1.23c-19.56-4.42-19.99-18.5-19.99-26.92v-18.7
			c0-8.43,0.43-22.5,19.99-26.92c4.19-0.82,8.6-1.13,12.9-1.13c8.81,0,14.94,1.13,20.21,2.05v15.82h-9.57V1725.6z"/>
		<path d="M884.97,1762.08c0,8.43-0.43,23.22-19.02,27.64c-5.37,1.13-9.78,1.54-14.19,1.54c-4.51,0-8.81-0.41-14.19-1.54
			c-18.59-4.42-19.02-19.11-19.02-27.54c0-5.75,0-11.3,0-16.75c0-8.43,0.43-23.12,19.02-27.54c5.37-1.13,9.67-1.54,14.19-1.54
			c4.41,0,8.81,0.41,14.19,1.54c18.59,4.42,19.02,19.21,19.02,27.64V1762.08z M874.44,1745.54c-0.32-16.44-6.88-20.45-22.68-20.45
			c-16.88,0-22.68,5.14-22.68,20.34c0,5.45,0,11,0,16.75c0,16.03,7.74,20.34,22.68,20.34c16.88,0,22.68-5.24,22.68-20.45V1745.54z"
			/>
		<path d="M960.32,1790.34h-12.15l-33-57.95h-0.43v49.94h9.03v8.01h-28.59v-8.01h9.03v-57.03h-9.03v-8.02h22.03l32.14,57.54h0.43
			v-49.53h-9.03v-8.02h28.59v8.02h-9.03V1790.34z"/>
	</g>
</g>
</svg>
