<?xml version="1.0" encoding="UTF-8"?>
<svg width="125px" height="125px" viewBox="0 0 125 125" version="1.1" xmlns="http://www.w3.org/2000/svg" xmlns:xlink="http://www.w3.org/1999/xlink">
    <title>Asset 1KO</title>
    <g id="Page-1" stroke="none" stroke-width="1" fill="none" fill-rule="evenodd">
        <g id="Asset-1KO" fill-rule="nonzero">
            <path d="M124.880001,62.45 C124.884045,37.1944678 109.673592,14.4235091 86.3416834,4.75583261 C63.009775,-4.91184392 36.1515777,0.427788819 18.2917893,18.2847169 C0.432000942,36.141645 -4.91193352,62.9989866 4.7520059,86.3324432 C14.4159453,109.6659 37.1844675,124.88 62.44,124.88 C96.9207549,124.88 124.874478,96.9307545 124.880001,62.45" id="Path" fill="#F40000"></path>
            <path d="M85.45,46.57 C83.7041761,47.4215757 82.1546634,48.6271306 80.9,50.11 C78.44,52.81 77.03,55.84 78.08,56.64 C78.49,56.95 79.42,57 81.08,55.48 C82.643858,54.1103213 83.8721196,52.3996505 84.67,50.48 C85.76,47.81 85.41,46.58 85.41,46.55 M98.81,51.4 C96.09,50 94.11,48.3 92.04,47.24 C89.97,46.18 88.83,45.83 87.23,46 C87.0062065,46.0362504 86.7855495,46.089743 86.57,46.16 C86.57,46.16 87.4,48.96 84.13,53.68 C80.86,58.4 77.81,58.48 77,57.15 C76.19,55.82 77.26,52.94 79.19,50.43 C80.7884696,48.5509608 82.6632039,46.9257415 84.75,45.61 C84.75,45.61 83.62,44.93 80.84,46.5 C76.1695904,49.4125036 72.1685678,53.2806133 69.1,57.85 C64.78,64 63.92,67.4 63.3,70.06 C62.68,72.72 63.24,75.59 66.2,75.59 C69.16,75.59 72.6,71.07 73.57,69.5 C75.37,66.58 76.57,62.1 74.1,62.72 C72.88,63.02 71.9,64.36 71.29,65.65 C70.8967506,66.477065 70.5981909,67.3459072 70.4,68.24 C69.5413565,68.5979725 68.7342513,69.0687838 68,69.64 C67.1897157,70.2432244 66.4304833,70.9121516 65.73,71.64 C65.9092166,69.6820022 66.4914076,67.7822213 67.44,66.06 C68.6639995,63.3788416 71.1070275,61.4534674 74,60.89 C75.6,60.76 77.67,62.11 75.91,67.1 C74.15,72.09 69,78.15 63.56,78.23 C58.56,78.3 55.25,71.89 62.23,60.7 C70,48.34 79,44.54 82,44.12 C85,43.7 85.9,44.99 85.9,44.99 C87.6723953,44.260771 89.5870376,43.9428036 91.5,44.06 C95.1,44.3 97.88,46.85 101.55,48.63 C100.55,49.56 99.69,50.52 98.86,51.42 M115,47.24 C112.52,48.85 109.06,50.3 105.75,49.98 C104.91,50.85 104.01,51.85 103.11,52.98 C108.86,54.12 113.89,50.55 116.57,47.51 C117.543831,46.4234204 118.380126,45.2210356 119.06,43.93 C117.843709,45.1915117 116.480663,46.3027633 115,47.24 M107.36,63.45 C107.403636,63.3746927 107.437253,63.2940109 107.46,63.21 C107.431397,62.939018 107.211895,62.727958 106.94,62.71 C106.39,62.71 105.64,62.79 103.69,64.95 C102.062242,66.7446636 100.661701,68.7329621 99.52,70.87 C98.4,72.87 97.95,74.44 98.6,74.87 C98.8095608,74.9788133 99.0526662,75.0038389 99.28,74.94 C99.71,74.84 100.21,74.43 100.96,73.56 C101.31,73.15 101.71,72.56 102.17,71.93 C103.46,70.17 106.71,64.61 107.36,63.49 M87,65.82 C87.33,64.96 87.74,63.29 86.87,62.63 C86,61.97 83.58,63.57 83.56,65.25 C83.6330884,66.4717617 84.4653603,67.516103 85.64,67.86 C85.87,67.93 85.95,67.92 86.06,67.73 C86.4181723,67.1163988 86.7322965,66.4781252 87,65.82 M85.23,69 C84.6490425,68.7322809 84.1018876,68.3966031 83.6,68 C83.1049893,67.580101 82.6885176,67.0755946 82.37,66.51 C82.37,66.46 82.31,66.51 82.27,66.51 C81.7538224,67.1498586 81.2731015,67.8175266 80.83,68.51 C79.57,70.37 77.63,74.2 79.39,74.85 C80.51,75.27 82.39,73.3 83.39,71.99 C84.0892841,71.0808021 84.7209769,70.1215649 85.28,69.12 C85.28,69.02 85.28,68.99 85.22,68.97 M105.14,73.39 C104.66,74.15 104.14,75.61 105.7,74.7 C107.62,73.59 110.35,69.44 110.35,69.44 L111.58,69.44 C110.460471,71.1760179 109.210179,72.82413 107.84,74.37 C105.89,76.52 103.52,78.48 101.84,78.29 C99.84,78.06 100.5,75.5 100.5,75.5 C100.5,75.5 97.7,78.5 95.77,78.26 C93.19,78 94,74.74 94,74.74 C94,74.74 91,78.37 89,78.25 C85.85,78.07 86.64,74.25 87.52,71.54 C87.99,70.09 88.42,68.96 88.42,68.96 C88.42,68.96 88.11,69.04 87.42,69.14 C87.07,69.14 86.42,69.23 86.42,69.23 C86.42,69.23 85.1,71.54 84.06,72.93 C83.02,74.32 78.6,79.12 76,78.17 C73.57,77.28 74.37,73.56 75.79,70.61 C77.85,66.31 83.64,60.11 86.99,60.92 C90.34,61.73 87.07,68.09 87.07,68.09 C87.07,68.09 87.07,68.09 87.07,68.09 C87.2871954,68.1396794 87.5128046,68.1396794 87.73,68.09 C88.1631631,68.003325 88.5880639,67.879535 89,67.72 C91.0518635,63.4652892 93.506397,59.4168158 96.33,55.63 C100.18,50.86 107.86,42.63 110.88,44.63 C111.61,45.12 111.28,46.8 110.29,48.85 C109.85,48.98 109.39,49.11 108.93,49.2 C109.479653,48.2880143 109.893975,47.3010517 110.16,46.27 C110.61,43.81 104.85,49.01 100.73,54.61 C98.2531953,57.9838609 96.052719,61.5521106 94.15,65.28 C94.8971902,64.8312955 95.6092364,64.3265116 96.28,63.77 C98.1128581,62.2420436 99.8557709,60.609315 101.5,58.88 C103.100961,57.2577536 104.603634,55.5413663 106,53.74 C106.44,53.74 106.88,53.67 107.3,53.6 C105.798855,55.644398 104.161823,57.5854506 102.4,59.41 C100.76,61.07 98.98,62.85 97.4,64.16 C96.0192824,65.3300313 94.5664208,66.4121627 93.05,67.4 C93.05,67.4 89.44,74.65 91.4,75.12 C92.55,75.4 94.82,71.89 94.82,71.89 C94.82,71.89 97.82,67.36 99.58,65.32 C102.02,62.55 104.12,60.95 106.22,60.91 C107.037747,60.9918592 107.763032,61.4703974 108.16,62.19 L108.73,61.3 L112.29,61.3 C112.29,61.3 105.67,72.53 105.14,73.38 M115,47.24 C112.52,48.85 109.06,50.3 105.75,49.98 C104.91,50.85 104.01,51.85 103.11,52.98 C108.86,54.12 113.89,50.55 116.57,47.51 C117.543831,46.4234204 118.380126,45.2210356 119.06,43.93 C117.843709,45.1915117 116.480663,46.3027633 115,47.24 M108.9,76.17 L109.44,76.17 C109.582514,76.1483267 109.727486,76.1483267 109.87,76.17 C110.031448,76.2347849 110.132513,76.3964893 110.12,76.57 C110.12625,76.691894 110.064709,76.8072837 109.96,76.87 C109.891148,76.9170485 109.812498,76.9478244 109.73,76.96 C109.839289,76.962196 109.940398,77.018368 110,77.11 C110.0512,77.1803629 110.08231,77.2633209 110.09,77.35 L110.09,77.57 C110.09,77.57 110.09,77.65 110.09,77.66 L109.84,77.66 L109.84,77.48 C109.84,77.3 109.84,77.18 109.69,77.13 C109.60161,77.081175 109.500508,77.0602573 109.4,77.07 L109.18,77.07 L109.18,77.68 L108.9,77.68 L108.9,76.17 Z M109.84,76.65 C109.84,76.53 109.84,76.45 109.74,76.42 C109.636609,76.3731619 109.523261,76.352553 109.41,76.36 L109.18,76.36 L109.18,76.92 L109.42,76.92 C109.506072,76.9343595 109.593928,76.9343595 109.68,76.92 C109.776888,76.8796299 109.84,76.7849622 109.84,76.68 M110.840024,76.98 C110.843696,77.6244105 110.412989,78.1905154 109.790941,78.3588442 C109.168892,78.527173 108.511484,78.2555166 108.189711,77.6971791 C107.867938,77.1388415 107.962487,76.4338283 108.42,75.98 C108.977935,75.4415289 109.862065,75.4415289 110.42,75.98 C110.690994,76.2409931 110.839781,76.6038893 110.83,76.98 M109.41,75.76 C109.086071,75.7568653 108.775099,75.8870397 108.55,76.12 C108.315012,76.3437075 108.184451,76.6556028 108.19,76.98 C108.186056,77.3099473 108.315932,77.6274211 108.55,77.86 C108.776793,78.0892866 109.087549,78.2157572 109.41,78.21 C109.743625,78.23231 110.071429,78.1144097 110.314415,77.8847119 C110.557401,77.6550141 110.693532,77.3343514 110.69,77 C110.699387,76.6768832 110.57235,76.3647354 110.34,76.14 C110.111152,75.9064906 109.796933,75.7764689 109.47,75.78 M65.28,52.78 L61.91,52.78 L60,55.86 L63.36,55.86 L65.28,52.78 Z M49.28,63.44 C50.72,61.44 54.67,54.59 54.67,54.59 C54.6331316,54.3193145 54.4123725,54.1110511 54.14,54.09 C53.59,54.09 52.69,54.25 50.87,56.52 C49.2874312,58.3771198 47.86879,60.3679017 46.63,62.47 C45.51,64.47 45.01,65.97 45.63,66.36 C45.8414062,66.4624882 46.082148,66.4872705 46.31,66.43 C47.0370006,66.1397335 47.6628524,65.642529 48.11,65 C48.47,64.6 48.86,64 49.33,63.41 M31.25,54.11 C30.32,53.41 27.95,55.05 27.9399652,56.74 C27.93,58.43 30.08,59 30.36,59 C30.4898035,59.0420466 30.6313609,58.9879217 30.7,58.87 C30.76,58.74 31.05,58.2 31.38,57.35 C31.71,56.5 32.12,54.81 31.25,54.15 M29.85,60.09 C29.1994126,59.8872292 28.5776358,59.6015479 28,59.24 C27.4508531,58.8788365 27.0033116,58.3830982 26.7,57.8 C26.7,57.74 26.63,57.8 26.59,57.8 C26.55,57.8 26.37,58.1 25.11,59.95 C23.85,61.8 22,65.65 23.75,66.29 C24.87,66.71 26.75,64.73 27.75,63.43 C28.5189809,62.4072538 29.2300938,61.3422537 29.88,60.24 C29.93,60.13 29.88,60.1 29.82,60.08 M57.35,61.21 L58.58,61.21 C58.58,61.21 52.4,70.15 48.9,69.75 C46.96,69.52 47.53,67.11 47.53,67.11 C47.53,67.11 44.79,70.32 42.28,69.68 C40,69.09 41.47,65.3 41.47,65.3 C41.21,65.4 36.27,70.97 32.8,69.64 C29.33,68.31 31.05,63.58 31.8,62.18 C32.36,61 33,59.84 33,59.84 C33,59.84 32.44,60 32.09,60.08 L31.22,60.26 C31.22,60.26 29.5,63.05 28.45,64.45 C27.4,65.85 23,70.64 20.33,69.68 C17.66,68.72 18.33,65.05 19.83,62.13 C22.22,57.38 27.9,51.56 31.32,52.44 C34.74,53.32 31.92,58.92 31.92,58.92 C31.92,58.92 32.6,59.02 34.25,57.92 C36.63,56.3 39.76,51.92 43.15,52.46 C44.74,52.69 46.22,54.33 44.2,57.46 C43.54,58.46 42.46,59.35 41.62,58.46 C41.1,57.92 41.55,56.91 42.1,56.23 C42.5330778,55.6640037 43.2184811,55.3493924 43.93,55.39 C43.93,55.39 44.49,54.11 43.07,54.13 C41.91,54.13 39,56.84 37.35,59.56 C35.83,62.06 33.54,66.31 35.85,67.23 C37.95,68.08 41.96,63.32 43.85,60.82 C45.74,58.32 49.94,52.66 53.49,52.43 C54.2647409,52.4230393 54.9935524,52.7967888 55.44,53.43 L55.85,52.78 L59.4,52.78 C59.4,52.78 52.71,63.95 52.19,64.78 C51.78,65.44 51.19,66.93 52.75,66.1 C54.31,65.27 57.41,61.21 57.41,61.21 M55.45,79.1 C52.8300701,77.2962326 49.6987224,76.38453 46.52,76.5 C44.7735636,76.5466935 43.1540527,77.4233095 42.16,78.86 C40.81,76.5 38.16,75.05 33.99,75.08 C27.3,75.16 20.66,78.25 15.4,78.25 C10.4,78.25 6.68,75.08 6.8,69.46 C7,59.59 15.35,50.7 21.58,46.69 C25.16,44.39 28.16,43.69 30.13,43.93 C31.0636551,44.0709888 31.8682251,44.6622032 32.2816907,45.5111059 C32.6951563,46.3600087 32.6646101,47.3579738 32.2,48.18 C30.6,51.75 28.4,51.45 28.48,49.74 C28.5443004,48.8356373 29.0440315,48.0189128 29.82,47.55 C30.2175138,47.3398453 30.6603532,47.2299937 31.11,47.23 C31.43,46.97 31.67,45.02 29.11,45.66 C26.55,46.3 23.46,48.82 20.51,52.07 C17.56,55.32 13,61.48 11.84,68 C11.31,71 11.67,76.46 18.77,76.39 C24.77,76.39 33.67,72.39 41.83,72.45 C44.6704459,72.4325005 47.4614255,73.1933623 49.9,74.65 C51.9776866,75.8450896 53.8512631,77.3642057 55.45,79.15" id="Shape" fill="#FFFFFF"></path>
        </g>
    </g>
</svg>